<mxfile host="65bd71144e">
    <diagram id="lLaLXQKT_goEUjWEFYHm" name="Page-1">
        <mxGraphModel dx="1206" dy="451" grid="1" gridSize="10" guides="1" tooltips="1" connect="1" arrows="1" fold="1" page="0" pageScale="1" pageWidth="850" pageHeight="1100" background="#ffffff" math="0" shadow="0">
            <root>
                <mxCell id="0"/>
                <mxCell id="1" parent="0"/>
                <mxCell id="28" value="" style="edgeStyle=none;html=1;fontColor=#000000;" parent="1" target="27" edge="1">
                    <mxGeometry relative="1" as="geometry">
                        <mxPoint x="375" y="670" as="sourcePoint"/>
                    </mxGeometry>
                </mxCell>
                <mxCell id="35" style="edgeStyle=none;html=1;fontColor=#000000;entryX=0.25;entryY=0;entryDx=0;entryDy=0;" parent="1" target="40" edge="1">
                    <mxGeometry relative="1" as="geometry">
                        <Array as="points"/>
                        <mxPoint x="635" y="670" as="sourcePoint"/>
                        <mxPoint x="615" y="890" as="targetPoint"/>
                    </mxGeometry>
                </mxCell>
                <mxCell id="44" style="edgeStyle=none;html=1;entryX=0;entryY=0.5;entryDx=0;entryDy=0;fontColor=#000000;exitX=1;exitY=0.5;exitDx=0;exitDy=0;" parent="1" target="43" edge="1">
                    <mxGeometry relative="1" as="geometry">
                        <mxPoint x="615" y="670" as="sourcePoint"/>
                        <Array as="points"/>
                    </mxGeometry>
                </mxCell>
                <mxCell id="54" value="If requested" style="edgeLabel;html=1;align=center;verticalAlign=middle;resizable=0;points=[];fontColor=#000000;" parent="44" vertex="1" connectable="0">
                    <mxGeometry x="-0.2879" y="1" relative="1" as="geometry">
                        <mxPoint x="27" y="1" as="offset"/>
                    </mxGeometry>
                </mxCell>
                <mxCell id="25" value="Video Frame" style="endArrow=classic;html=1;fontColor=#000000;entryX=0;entryY=0.5;entryDx=0;entryDy=0;" parent="1" edge="1" target="27">
                    <mxGeometry width="50" height="50" relative="1" as="geometry">
                        <mxPoint x="155" y="670" as="sourcePoint"/>
                        <mxPoint x="295" y="670" as="targetPoint"/>
                    </mxGeometry>
                </mxCell>
                <mxCell id="29" value="" style="edgeStyle=none;html=1;fontColor=#000000;" parent="1" source="27" edge="1">
                    <mxGeometry relative="1" as="geometry">
                        <mxPoint x="640" y="670" as="targetPoint"/>
                    </mxGeometry>
                </mxCell>
                <mxCell id="27" value="Apply&lt;br&gt;color preferences" style="rounded=0;whiteSpace=wrap;html=1;comic=0;fontColor=#000000;" parent="1" vertex="1">
                    <mxGeometry x="415" y="590" width="80" height="160" as="geometry"/>
                </mxCell>
                <mxCell id="30" value="Video Processing Module" style="swimlane;whiteSpace=wrap;html=1;comic=0;fontColor=#000000;" parent="1" vertex="1">
                    <mxGeometry x="175" y="420" width="660" height="490" as="geometry"/>
                </mxCell>
                <mxCell id="43" value="To&lt;br&gt;SVG" style="rounded=0;whiteSpace=wrap;html=1;comic=0;fontColor=#000000;" parent="30" vertex="1">
                    <mxGeometry x="560" y="170" width="80" height="160" as="geometry"/>
                </mxCell>
                <mxCell id="33" value="Video Capture" style="swimlane;whiteSpace=wrap;html=1;comic=0;fontColor=#000000;" parent="1" vertex="1">
                    <mxGeometry x="10" y="630" width="150" height="80" as="geometry"/>
                </mxCell>
                <mxCell id="50" value="&lt;div style=&quot;font-family: &amp;quot;MesloLGS NF&amp;quot;, &amp;quot;Droid Sans Mono&amp;quot;, &amp;quot;monospace&amp;quot;, monospace; font-size: 16px; line-height: 22px;&quot;&gt;&lt;div style=&quot;line-height: 22px;&quot;&gt;mjpg-streamer&lt;/div&gt;&lt;/div&gt;" style="text;html=1;align=center;verticalAlign=middle;resizable=0;points=[];autosize=1;strokeColor=none;fillColor=none;fontColor=#000000;" parent="33" vertex="1">
                    <mxGeometry y="30" width="150" height="40" as="geometry"/>
                </mxCell>
                <mxCell id="37" style="edgeStyle=none;html=1;exitX=1;exitY=0.5;exitDx=0;exitDy=0;entryX=0.5;entryY=1;entryDx=0;entryDy=0;fontColor=#000000;" parent="1" source="36" target="27" edge="1">
                    <mxGeometry relative="1" as="geometry">
                        <Array as="points">
                            <mxPoint x="455" y="810"/>
                        </Array>
                    </mxGeometry>
                </mxCell>
                <mxCell id="36" value="Device Settings" style="swimlane;whiteSpace=wrap;html=1;comic=0;fontColor=#000000;" parent="1" vertex="1">
                    <mxGeometry x="15" y="770" width="145" height="80" as="geometry"/>
                </mxCell>
                <mxCell id="56" value="&lt;div style=&quot;font-family: &amp;quot;MesloLGS NF&amp;quot;, &amp;quot;Droid Sans Mono&amp;quot;, &amp;quot;monospace&amp;quot;, monospace; font-size: 16px; line-height: 22px;&quot;&gt;&lt;div style=&quot;line-height: 22px;&quot;&gt;v4l2-ctl&lt;/div&gt;&lt;/div&gt;" style="text;html=1;align=center;verticalAlign=middle;resizable=0;points=[];autosize=1;strokeColor=none;fillColor=none;fontColor=#000000;" vertex="1" parent="36">
                    <mxGeometry x="20" y="30" width="100" height="40" as="geometry"/>
                </mxCell>
                <mxCell id="41" style="edgeStyle=none;html=1;exitX=0;exitY=0.5;exitDx=0;exitDy=0;entryX=0.5;entryY=1;entryDx=0;entryDy=0;fontColor=#000000;" parent="1" source="40" target="36" edge="1">
                    <mxGeometry relative="1" as="geometry">
                        <Array as="points">
                            <mxPoint x="85" y="1050"/>
                        </Array>
                    </mxGeometry>
                </mxCell>
                <mxCell id="40" value="Http Server" style="swimlane;whiteSpace=wrap;html=1;comic=0;fontColor=#000000;startSize=23;" parent="1" vertex="1">
                    <mxGeometry x="595" y="1010" width="160" height="80" as="geometry"/>
                </mxCell>
                <mxCell id="51" value="&lt;div style=&quot;font-family: &amp;quot;MesloLGS NF&amp;quot;, &amp;quot;Droid Sans Mono&amp;quot;, &amp;quot;monospace&amp;quot;, monospace; font-size: 16px; line-height: 22px;&quot;&gt;&lt;div style=&quot;line-height: 22px;&quot;&gt;&lt;div style=&quot;line-height: 22px;&quot;&gt;unix socket&lt;/div&gt;&lt;/div&gt;&lt;/div&gt;" style="text;html=1;align=center;verticalAlign=middle;resizable=0;points=[];autosize=1;strokeColor=none;fillColor=none;fontColor=#000000;" parent="40" vertex="1">
                    <mxGeometry x="15" y="33" width="130" height="40" as="geometry"/>
                </mxCell>
                <mxCell id="45" style="edgeStyle=none;html=1;exitX=0.5;exitY=1;exitDx=0;exitDy=0;entryX=0.75;entryY=0;entryDx=0;entryDy=0;fontColor=#000000;" parent="1" source="43" target="40" edge="1">
                    <mxGeometry relative="1" as="geometry">
                        <mxPoint x="825" y="570.0000000000002" as="targetPoint"/>
                    </mxGeometry>
                </mxCell>
            </root>
        </mxGraphModel>
    </diagram>
</mxfile>